<?xml version="1.0" standalone="no"?><!DOCTYPE svg PUBLIC "-//W3C//DTD SVG 1.1//EN" "http://www.w3.org/Graphics/SVG/1.1/DTD/svg11.dtd"><svg t="1579314943457" class="icon" viewBox="0 0 1024 1024" version="1.1" xmlns="http://www.w3.org/2000/svg" p-id="2730" xmlns:xlink="http://www.w3.org/1999/xlink" width="200" height="200"><defs><style type="text/css"></style></defs><path d="M789.056 959.696H199.328a83.088 83.088 0 0 1-83.072-83.072V197.056a70.336 70.336 0 0 1 70.32-70.32h474.32c17.728 0 32.048 4.704 32.048 22.384s-14.32 22.368-32.048 22.368H180.032c-10.464 0-19.024 8.56-19.024 18.96v690.48c0 23.104 6.384 34.016 34.352 34.016h593.696c51.36 0 51.36-26.8 51.36-44.48V351.008c0-17.68 4.64-30.432 22.368-30.432 17.68 0 22.384 12.752 22.384 30.432V882.88c0 53.024-43.136 76.8-96.112 76.8M600.816 447.104c-15.168 0-30.384-10.784-33.168-32.16a22.08 22.08 0 0 1 6.256-18.24L896.576 74.048a32 32 0 0 1 45.312 0 32 32 0 0 1 0 45.312L623.472 437.712a31.792 31.792 0 0 1-22.656 9.392m-132.128 0H276.464c-17.664 0-32.048-4.24-32.048-21.92 0-17.728 14.384-22.656 32.048-22.656h192.224c17.68 0 32.048 4.928 32.048 22.656 0 17.68-14.368 21.92-32.048 21.92m192.208 192.224H276.464c-17.664 0-32.048-4.64-32.048-22.384 0-17.728 14.384-22.368 32.048-22.368h384.432c17.728 0 30.656 4.96 30.656 22.72 0 17.712-12.928 22.032-30.656 22.032" p-id="2731"></path></svg>